<svg width="12" height="12" viewBox="0 0 12 12" fill="none" xmlns="http://www.w3.org/2000/svg">
<path fill-rule="evenodd" clip-rule="evenodd" d="M11.649 2.04569C12.117 1.57771 12.117 0.818964 11.649 0.350985C11.181 -0.116995 10.4223 -0.116995 9.95431 0.350984L5.99999 4.3053L2.04569 0.350995C1.57771 -0.116984 0.818965 -0.116984 0.350985 0.350995C-0.116994 0.818974 -0.116994 1.57772 0.350985 2.0457L4.30529 6L0.350985 9.9543C-0.116995 10.4223 -0.116995 11.181 0.350985 11.649C0.818964 12.117 1.57771 12.117 2.04569 11.649L5.99999 7.6947L9.95431 11.649C10.4223 12.117 11.181 12.117 11.649 11.649C12.117 11.181 12.117 10.4223 11.649 9.95431L7.6947 6L11.649 2.04569Z" fill="black" fill-opacity="0.8"/>
</svg>
